<svg width="30" height="28" viewBox="0 0 30 28" fill="none" xmlns="http://www.w3.org/2000/svg">
<g clip-path="url(#clip0_2578_13273)">
<path d="M0 0.369141H30V27.6664H0V0.369141Z" fill="#EEEEEE"/>
<path d="M20.7391 -2.63086L21.6051 -3.13086L20.7391 -4.63086L19.873 -3.13086L20.7391 -2.63086ZM33.9357 20.2264V21.2264H35.6678L34.8017 19.7264L33.9357 20.2264ZM7.54241 20.2264L6.67638 19.7264L5.81036 21.2264H7.54241V20.2264ZM19.873 -2.13086L33.0697 20.7264L34.8017 19.7264L21.6051 -3.13086L19.873 -2.13086ZM14.223 10.6552L21.6051 -2.13086L19.873 -3.13086L12.491 9.65521L14.223 10.6552ZM7.42864 9.49931C9.41093 9.49931 11.2612 10.0514 12.8376 11.0097L13.8765 9.30072C11.9959 8.15747 9.78761 7.49931 7.42864 7.49931V9.49931ZM-3 19.9279C-3 14.1684 1.66906 9.49931 7.42864 9.49931V7.49931C0.564491 7.49931 -5 13.0638 -5 19.9279H-3ZM7.42864 30.3566C1.66906 30.3566 -3 25.6875 -3 19.9279H-5C-5 26.7921 0.564491 32.3566 7.42864 32.3566V30.3566ZM17.8538 20.2008C17.7094 25.834 13.097 30.3566 7.42864 30.3566V32.3566C14.1844 32.3566 19.681 26.9667 19.8531 20.252L17.8538 20.2008ZM33.9357 19.2264H18.8535V21.2264H33.9357V19.2264ZM18.8535 19.2264H7.54241V21.2264H18.8535V19.2264ZM8.40843 20.7264L14.223 10.6552L12.491 9.65521L6.67638 19.7264L8.40843 20.7264ZM12.8376 11.0097C15.8493 12.8406 17.8573 16.1502 17.8573 19.9279H19.8573C19.8573 15.4232 17.4601 11.4793 13.8765 9.30072L12.8376 11.0097ZM17.8573 19.9279C17.8573 20.0192 17.8561 20.1101 17.8538 20.2008L19.8531 20.252C19.8559 20.1443 19.8573 20.0363 19.8573 19.9279H17.8573Z" fill="#AAAAAA"/>
</g>
<path d="M0 0.369141V-1.63086H-2V0.369141H0ZM30 0.369141H32V-1.63086H30V0.369141ZM30 27.6664V29.6664H32V27.6664H30ZM0 27.6664H-2V29.6664H0V27.6664ZM0 2.36914H30V-1.63086H0V2.36914ZM28 0.369141V27.6664H32V0.369141H28ZM30 25.6664H0V29.6664H30V25.6664ZM2 27.6664V0.369141H-2V27.6664H2Z" fill="#AAAAAA"/>
<defs>
<clipPath id="clip0_2578_13273">
<path d="M0 0.369141H30V27.6664H0V0.369141Z" fill="white"/>
</clipPath>
</defs>
</svg>
