<svg width="32" height="27" viewBox="0 0 32 27" fill="none" xmlns="http://www.w3.org/2000/svg">
<path d="M13.5781 2.39409L1.57891 21.6933C1.33152 22.106 1.20062 22.574 1.19923 23.0507C1.19784 23.5273 1.32602 23.996 1.57102 24.4101C1.81601 24.8242 2.16927 25.1692 2.59566 25.411C3.02206 25.6527 3.50671 25.7826 4.00141 25.7879H27.9997C28.4944 25.7826 28.9791 25.6527 29.4055 25.411C29.8319 25.1692 30.1851 24.8242 30.4301 24.4101C30.6751 23.996 30.8033 23.5273 30.8019 23.0507C30.8005 22.574 30.6696 22.106 30.4222 21.6933L18.4231 2.39409C18.1705 1.99297 17.8149 1.66132 17.3906 1.43116C16.9663 1.20099 16.4875 1.08008 16.0006 1.08008C15.5136 1.08008 15.0349 1.20099 14.6106 1.43116C14.1862 1.66132 13.8306 1.99297 13.5781 2.39409V2.39409Z" stroke="#5D5FEF" stroke-width="2" stroke-linecap="round" stroke-linejoin="round"/>
<path d="M16 20.3291H16.0142" stroke="#5D5FEF" stroke-width="2" stroke-linecap="round" stroke-linejoin="round"/>
<path d="M16 9.41016V14.8696" stroke="#5D5FEF" stroke-width="2" stroke-linecap="round" stroke-linejoin="round"/>
</svg>
